# xmcd
#
# Track frame offsets: 
#        150
#        7276
#        16002
#        22189
#        40420
#        46721
#        61764
#        85901
#        95507
#        108178
#        113798
#        132465
#        202341
#
# Disc length: 3606 seconds
#
# Revision: 1
# Processed by: cddbd v1.5.2PL0 Copyright (c) Steve Scherf et al.
# Submitted via: ExactAudioCopy v1.0b3
#
DISCID=ac0e140d
DTITLE=なぎら健壱 - 嘘のような本当の話＜第二集＞ 話の途中で寝るなよ!
DYEAR=2005
DGENRE=Other
TTITLE0=プロローグ
TTITLE1=社会の窓とハンカチーフ
TTITLE2=国旗掲揚
TTITLE3=鯛の散歩
TTITLE4=アンコールワットの怪
TTITLE5=愛情満杯の水炊き
TTITLE6=犬に噛み付かれた
TTITLE7=飲み薬じゃない
TTITLE8=見知らぬスタッフ
TTITLE9=一人よがりの運転手
TTITLE10=街で見かけたちょいといい話
TTITLE11=カランコロン事件
TTITLE12=縄文式土器
EXTD=YEAR: 2005
EXTT0=
EXTT1=
EXTT2=
EXTT3=
EXTT4=
EXTT5=
EXTT6=
EXTT7=
EXTT8=
EXTT9=
EXTT10=
EXTT11=
EXTT12=
PLAYORDER=
